PathFileType	4	(X/Y/Z)	D:\TRACE\v60_Jaco2_6-2-23\BothDRS_Motion3_3-v60.trc
DataRate	CameraRate	NumFrames	NumMarkers	Units	OrigDataRate	OrigDataStartFrame	OrigNumFrames
100.00	100.00	      28	9	mm	100.00	876	      7000
Frame#	Time	front left toe			Front right toe			aft left toe			aft right toe			Arm			FL body			FR body			AL Body			AR Body			
		X1	Y1	Z1	X2	Y2	Z2	X3	Y3	Z3	X4	Y4	Z4	X5	Y5	Z5	X6	Y6	Z6	X7	Y7	Z7	X8	Y8	Z8	X9	Y9	Z9	

876	8.750	-155.46548	3.89507	-213.16798	237.09273	2.26459	-215.80205	-138.39085	34.70123	405.20709	214.88922	34.49695	407.26743	62.89301	1132.53455	-451.45599	-34.67935	504.76874	-387.94608	124.45858	502.14163	-388.90646	-20.91687	590.55499	552.81915	131.14969	578.19958	552.10999	
877	8.760	-153.13336	7.85596	-210.32248	237.02829	2.37528	-216.01436	-137.61702	35.18007	404.80234	212.62404	37.57824	410.40604	62.81023	1132.73926	-453.91931	-35.07278	505.18094	-387.71417	123.96416	502.79898	-388.99091	-19.78683	591.43719	553.14154	130.75519	579.75128	551.80719	
878	8.770	-147.53516	12.13520	-206.95238	236.75699	2.32974	-216.09711	-137.60626	35.02100	404.91989	211.18102	47.36464	410.71686	62.61291	1132.71960	-456.26880	-35.44109	505.79327	-387.57166	123.69942	503.35309	-388.90604	-19.05358	591.90570	553.13196	132.75380	579.92810	551.85388	
879	8.780	-145.58153	23.79679	-207.23944	236.64992	2.33417	-216.13951	-137.81145	34.94670	405.14554	209.85677	55.12803	412.25854	63.03768	1132.39282	-458.09647	-35.36657	506.23917	-387.51715	123.79667	503.52472	-388.84610	-18.30470	592.48816	553.19965	133.74083	579.97925	551.80054	
880	8.790	-144.55116	34.50833	-207.30852	236.73996	2.26240	-215.99745	-137.50012	34.70028	405.00391	210.58971	67.99549	410.38260	63.07257	1132.02954	-459.52271	-35.10767	506.11957	-387.36426	123.93626	503.30780	-388.93616	-17.91833	592.57684	553.19635	134.46521	580.12677	551.63623	
881	8.800	-145.48930	45.13950	-208.13060	236.85066	2.16619	-215.68442	-137.44170	34.57356	405.01028	211.96146	79.65883	409.14767	63.43456	1131.64526	-460.66592	-34.59320	505.30008	-387.18161	124.17599	502.90317	-389.01083	-17.79092	592.42236	553.21985	134.48528	580.13019	551.85614	
882	8.810	-146.79590	57.82065	-209.27748	236.97922	2.20240	-215.63704	-137.37498	33.94647	405.01672	216.13683	93.14089	407.50082	63.69769	1131.20288	-461.86426	-34.19413	504.74771	-387.18130	124.64197	502.35889	-388.92557	-17.77876	591.86151	553.23761	134.44553	579.78107	551.94781	
883	8.820	-147.11337	69.69448	-209.62306	236.89479	2.10193	-215.61589	-137.85268	33.76696	405.10367	219.96851	105.58200	406.63776	63.78845	1130.79541	-462.93280	-33.99823	504.56839	-387.58945	124.99815	501.99503	-388.92484	-18.23885	591.14960	553.22168	134.56554	579.07159	552.07361	
884	8.830	-145.87044	80.76465	-210.04149	236.86519	2.00701	-215.58112	-137.89311	33.55699	405.25568	222.92253	117.41126	405.84641	64.37508	1130.05212	-464.04782	-33.37093	504.12253	-387.50916	125.64079	501.53403	-388.74954	-18.41276	590.68005	553.23083	134.49452	578.38782	552.25421	
885	8.840	-146.15952	92.54259	-210.99022	237.10373	1.95338	-215.49342	-138.04768	33.71749	405.48401	225.13326	128.66154	405.28268	64.86125	1129.64746	-465.45810	-33.00711	503.72470	-387.44711	125.91788	501.26175	-388.66479	-18.64056	589.93097	553.46924	133.94991	577.84583	552.43292	
886	8.850	-145.39552	102.74506	-211.44279	237.19492	2.00875	-215.40604	-137.83774	33.16290	405.41055	226.39088	139.18600	404.91574	65.71927	1129.09802	-466.55380	-32.51926	503.21146	-387.14719	126.11686	501.02948	-388.59924	-18.83016	589.65967	553.58392	133.58485	577.65454	552.60693	
887	8.860	-145.16081	111.65252	-212.14798	237.18234	2.09864	-215.36620	-138.03273	33.04598	405.43237	227.35327	148.81190	404.92200	66.22878	1128.58203	-467.73834	-32.22332	502.82904	-386.98212	126.60728	500.52359	-388.22583	-18.95584	589.49988	553.58398	133.24345	577.50665	552.69849	
888	8.870	-144.78052	118.84233	-212.47281	237.14133	2.10668	-215.38560	-138.11981	32.84746	405.40268	227.77657	157.18153	404.72528	66.23843	1128.08228	-469.18716	-32.35527	502.71713	-387.13962	126.81181	500.27124	-387.94965	-19.29980	589.47467	553.61658	132.81334	577.53809	552.84540	
889	8.880	-145.70741	124.84143	-212.60733	237.00314	2.03535	-215.37288	-138.16721	32.73385	405.50107	228.37213	162.75563	405.24451	66.28175	1127.58521	-470.44434	-32.07242	502.34274	-386.89041	126.91553	500.08881	-387.76547	-19.83084	589.53412	553.74139	132.57646	577.67926	553.15106	
890	8.890	-146.19048	128.17076	-212.22697	237.24579	2.16746	-214.94540	-138.26472	32.50180	405.54938	228.67606	164.47246	405.95856	66.15849	1127.35999	-472.17563	-31.61798	502.22415	-386.74606	127.22639	499.97592	-387.40173	-20.53663	589.59021	553.93109	132.34705	577.72278	553.49561	
891	8.900	-146.51239	127.51785	-211.45406	237.30879	2.34388	-214.69841	-138.34784	32.28275	405.52826	229.57932	163.45511	406.82162	66.04872	1126.72620	-473.64301	-31.54178	502.25479	-386.85013	127.63425	499.97958	-386.99564	-21.06654	589.65540	554.20697	131.40569	577.82928	553.76691	
892	8.910	-146.73247	123.46005	-210.39177	237.41428	2.53496	-214.44489	-138.38461	32.07468	405.50238	230.19026	159.82378	407.53012	66.08591	1126.38281	-474.97122	-31.10624	502.11618	-386.66882	127.84737	500.08054	-386.83466	-21.70898	589.74872	554.23694	130.62863	577.89178	554.20404	
893	8.920	-145.92616	117.72092	-209.64801	237.49767	2.74403	-214.24033	-138.41539	31.97902	405.55881	230.34883	155.05524	408.30835	66.33630	1126.27673	-475.88715	-30.86989	502.11908	-386.53226	128.09496	500.19681	-386.53891	-22.61707	589.68860	554.54193	130.11929	577.95734	554.35480	
894	8.930	-145.66875	111.22141	-209.33530	237.52783	2.82990	-214.11012	-138.89931	32.07063	405.71326	230.01904	149.03926	409.18921	66.84562	1126.38623	-476.61237	-30.64381	502.10843	-386.44028	128.17723	500.25854	-386.35406	-23.10785	589.67303	554.78821	129.29205	577.99506	554.16571	
895	8.940	-144.73465	103.99189	-209.34123	237.37579	2.81569	-214.12538	-138.87100	31.86438	405.75827	229.75288	142.38782	409.66666	66.88283	1126.68030	-477.39212	-30.48736	502.19049	-386.36655	128.27460	500.28680	-386.24731	-23.88699	589.46069	554.81525	128.48079	577.94397	554.66412	
896	8.950	-144.03571	95.84694	-209.69310	237.40108	2.88235	-214.07254	-138.88147	31.69824	405.79053	229.36078	134.66075	410.04349	66.80868	1126.89600	-478.05463	-30.44476	502.19345	-386.33636	128.48958	500.30515	-386.02194	-24.46173	589.31659	554.82550	127.85248	577.76007	554.90607	
897	8.960	-144.18840	86.59583	-210.27203	237.51256	2.94777	-214.02428	-138.67221	31.08651	406.04257	228.84309	125.69161	410.32306	66.67467	1127.05151	-478.63666	-30.37128	502.18359	-386.33014	128.67923	500.35962	-385.90109	-25.26456	589.27283	554.82239	127.39581	577.69421	555.10895	
898	8.970	-144.84631	76.58524	-210.40207	237.59222	2.99325	-213.98495	-138.50322	31.21350	405.77652	228.59567	115.57500	410.21222	66.06444	1126.99280	-479.69415	-30.33720	502.18567	-386.33603	128.83511	500.38812	-385.75238	-26.25140	588.99426	554.82782	125.21298	577.73242	555.14496	
899	8.980	-144.26703	65.96664	-210.59656	237.67471	2.98112	-213.93748	-138.45248	31.00632	405.77634	228.20526	105.11392	410.60483	65.50896	1126.84192	-480.34775	-30.30171	502.18347	-386.34930	128.96979	500.36169	-385.58456	-26.60122	588.75006	554.69714	124.28761	577.62274	555.30780	
900	8.990	-144.19373	55.51798	-210.36481	237.60100	2.94473	-213.95900	-138.44168	30.68593	405.80453	228.26129	94.48441	411.09750	64.98186	1126.70825	-481.59052	-30.29253	502.15808	-386.37012	129.01736	500.40506	-385.47980	-27.63266	588.37885	554.75568	123.41723	577.22583	555.12134	
901	9.000	-144.30791	45.02795	-209.85043	237.87204	3.02960	-213.87297	-138.77115	30.74842	405.90070	227.02759	84.54482	411.04407	64.69624	1126.53406	-482.33133	-30.30976	502.10544	-386.42566	128.89046	500.51712	-385.42630	-28.29804	588.26971	554.84155	124.36650	576.97058	555.27753	
902	9.010	-144.16750	35.06342	-209.20702	237.99355	3.08437	-213.83102	-138.76210	30.57588	405.91953	226.23863	75.24090	410.98083	64.58234	1126.41443	-483.12607	-30.48071	501.86246	-386.59268	128.71049	500.51685	-385.44861	-29.05513	588.22589	554.79645	123.55289	576.91022	555.49127	
903	9.020	-144.89174	28.52988	-209.39574	238.06102	3.08127	-213.77530	-138.72231	30.52035	405.89359	225.53754	66.55477	410.86551	64.24757	1126.32678	-483.93585	-30.57425	501.71976	-386.70126	128.60414	500.39142	-385.50211	-29.75599	588.39282	554.63300	123.07462	577.05646	555.35925	
